<svg viewBox="0 0 200 200" xmlns="http://www.w3.org/2000/svg">
  <path fill="#F3F4F6" d="M44.7,-76.4C58.8,-69.7,71.8,-59.1,79.6,-45.3C87.4,-31.5,90,-14.6,88.7,1.8C87.4,18.1,82.3,33.9,74.4,48.4C66.5,62.9,55.9,76.1,42.1,82.9C28.3,89.7,11.4,90.1,-4.4,87.1C-20.2,84.1,-35,77.7,-47.1,68.5C-59.2,59.2,-68.5,47,-76.3,33.2C-84.1,19.4,-90.3,3.9,-88.9,-11.1C-87.4,-26.1,-78.3,-40.7,-66.6,-47.9C-54.9,-55.2,-40.7,-55.2,-28.5,-63C-16.3,-70.8,-6.1,-86.4,4.9,-94.8C15.8,-103.2,30.7,-83.2,44.7,-76.4Z" transform="translate(100 100)" />
</svg>