<svg width="48" height="48" viewBox="0 0 48 48" fill="none" xmlns="http://www.w3.org/2000/svg">
<path d="M27.7076 7.707C27.8897 7.5184 27.9905 7.2658 27.9882 7.0036C27.986 6.74141 27.8808 6.49059 27.6954 6.30519C27.51 6.11978 27.2592 6.01461 26.997 6.01233C26.7348 6.01005 26.4822 6.11085 26.2936 6.29301L24.0006 8.58601L21.7076 6.29301C21.6153 6.19749 21.505 6.12131 21.383 6.0689C21.261 6.01649 21.1298 5.98891 20.997 5.98775C20.8642 5.9866 20.7325 6.0119 20.6096 6.06218C20.4867 6.11246 20.3751 6.18672 20.2812 6.28061C20.1873 6.3745 20.113 6.48615 20.0627 6.60905C20.0125 6.73195 19.9872 6.86363 19.9883 6.99641C19.9895 7.12919 20.0171 7.26041 20.0695 7.38241C20.1219 7.50441 20.1981 7.61476 20.2936 7.707L22.5866 10L20.2936 12.293C20.1114 12.4816 20.0106 12.7342 20.0129 12.9964C20.0152 13.2586 20.1203 13.5094 20.3058 13.6948C20.4912 13.8802 20.742 13.9854 21.0042 13.9877C21.2664 13.99 21.519 13.8892 21.7076 13.707L24.0006 11.414L26.2936 13.707C26.4812 13.8945 26.7357 13.9998 27.0009 13.9997C27.2662 13.9996 27.5206 13.8941 27.7081 13.7065C27.8956 13.5189 28.0009 13.2644 28.0008 12.9992C28.0007 12.7339 27.8952 12.4795 27.7076 12.292L25.4146 10L27.7076 7.707ZM33.9496 32.184C33.9911 32.3086 34.0077 32.4402 33.9983 32.5712C33.989 32.7023 33.9539 32.8302 33.8951 32.9476C33.8364 33.0651 33.755 33.1699 33.6557 33.2559C33.5565 33.3419 33.4412 33.4075 33.3166 33.449L28.8166 34.949C28.5649 35.0328 28.2902 35.0132 28.053 34.8945C27.8157 34.7758 27.6354 34.5677 27.5516 34.316C27.4678 34.0643 27.4874 33.7896 27.6061 33.5524C27.7248 33.3152 27.9329 33.1348 28.1846 33.051L32.6846 31.551C32.8092 31.5095 32.9408 31.4929 33.0718 31.5022C33.2028 31.5116 33.3307 31.5466 33.4482 31.6054C33.5657 31.6642 33.6704 31.7456 33.7565 31.8448C33.8425 31.9441 33.9081 32.0594 33.9496 32.184Z" fill="currentColor"/>
<path fill-rule="evenodd" clip-rule="evenodd" d="M6.68445 26.449L10.0004 27.554V36C10.0005 36.2079 10.0653 36.4107 10.1859 36.5801C10.3065 36.7495 10.4769 36.877 10.6734 36.945L23.6654 41.442C23.8708 41.5158 24.0947 41.5196 24.3024 41.453L24.3164 41.449L24.3314 41.444L37.3274 36.945C37.524 36.877 37.6944 36.7495 37.815 36.5801C37.9356 36.4107 38.0004 36.2079 38.0005 36V27.554L41.3165 26.449C41.4694 26.3981 41.6078 26.3111 41.7198 26.1952C41.8319 26.0793 41.9143 25.938 41.9599 25.7834C42.0056 25.6288 42.0132 25.4655 41.9821 25.3073C41.9511 25.1491 41.8822 25.0008 41.7814 24.875L37.7814 19.875C37.6628 19.7273 37.5047 19.6163 37.3254 19.555L24.3274 15.055C24.1156 14.9817 23.8853 14.9817 23.6734 15.055L10.6754 19.555C10.4962 19.6163 10.338 19.7273 10.2194 19.875L6.21945 24.875C6.11869 25.0008 6.04983 25.1491 6.01876 25.3073C5.98768 25.4655 5.9953 25.6288 6.04097 25.7834C6.08664 25.938 6.16901 26.0793 6.28105 26.1952C6.39309 26.3111 6.53149 26.3981 6.68445 26.449ZM21.3194 30.573L23.0004 28.173V39.096L12.0004 35.288V28.22L20.1844 30.948C20.3889 31.016 20.6098 31.0161 20.8143 30.9483C21.0188 30.8806 21.196 30.7486 21.3194 30.572V30.573ZM14.0574 20.5L24.0004 23.942L33.9434 20.5L24.0004 17.058L14.0574 20.5ZM26.6814 30.573L25.0004 28.174V39.097L36.0004 35.289V28.22L27.8164 30.948C27.612 31.016 27.3911 31.0161 27.1866 30.9483C26.9821 30.8806 26.8049 30.7486 26.6814 30.572V30.573ZM11.3404 21.676L8.67745 25.005L14.1884 26.842L20.1084 28.815L22.4214 25.512L22.2864 25.465L11.3404 21.675V21.676ZM39.3235 25.005L36.6604 21.675L25.5794 25.512L27.8924 28.815L39.3235 25.005Z" fill="currentColor"/>
</svg>
